<svg width="148" height="48" viewBox="0 0 148 48" fill="none" xmlns="http://www.w3.org/2000/svg">
<path d="M42.3735 47H30.1304C27.772 43.3496 25.147 39.73 22.2554 36.1411C19.3843 32.5317 16.3696 29.0352 13.2114 25.6514H12.4116V40.8477C12.4116 41.5244 12.5347 42.1294 12.7808 42.6626C13.0474 43.1958 13.519 43.6265 14.1958 43.9546C14.5239 44.0981 15.1289 44.2725 16.0107 44.4775C16.9131 44.6826 17.6616 44.7954 18.2563 44.8159V47H0.137695V44.8159C0.609375 44.7749 1.29639 44.7134 2.19873 44.6313C3.10107 44.5493 3.73682 44.4263 4.10596 44.2622C4.72119 43.9956 5.16211 43.606 5.42871 43.0933C5.71582 42.5601 5.85938 41.9243 5.85938 41.186V9.68604C5.85938 8.98877 5.73633 8.38379 5.49023 7.87109C5.26465 7.3584 4.80322 6.93799 4.10596 6.60986C3.55225 6.34326 2.896 6.10742 2.13721 5.90234C1.37842 5.69727 0.711914 5.57422 0.137695 5.5332V3.34912H18.2563V5.5332C17.6821 5.55371 16.9644 5.646 16.103 5.81006C15.2417 5.97412 14.606 6.12793 14.1958 6.27148C13.4985 6.51758 13.0269 6.92773 12.7808 7.50195C12.5347 8.07617 12.4116 8.70166 12.4116 9.37842V24.4517H13.0269C14.8726 22.8931 16.6875 21.2729 18.4717 19.5913C20.2559 17.8892 21.876 16.1973 23.332 14.5156C24.9521 12.6494 26.1313 11.1626 26.8696 10.0552C27.6284 8.92725 28.0078 7.93262 28.0078 7.07129C28.0078 6.76367 27.813 6.51758 27.4233 6.33301C27.0542 6.12793 26.6235 5.96387 26.1313 5.84082C25.5571 5.71777 25.0444 5.646 24.5933 5.62549C24.1421 5.58447 23.7729 5.55371 23.4858 5.5332V3.34912H39.8511V5.5332C39.7896 5.5332 39.6562 5.54346 39.4512 5.56396C39.2461 5.58447 39.0103 5.60498 38.7437 5.62549C38.4565 5.646 38.1694 5.68701 37.8823 5.74854C37.5952 5.81006 37.2261 5.88184 36.7749 5.96387C36.0571 6.12793 35.3086 6.39453 34.5293 6.76367C33.7705 7.1123 33.145 7.55322 32.6528 8.08643C30.5405 10.4858 28.3359 12.9673 26.0391 15.5308C23.7422 18.0942 21.4658 20.4321 19.21 22.5444C22.3271 26.0718 24.9009 29.1069 26.9312 31.6499C28.9819 34.1929 31.1558 36.9102 33.4526 39.8018C34.3345 40.9092 35.2163 41.8013 36.0981 42.478C36.98 43.1343 37.7388 43.6265 38.3745 43.9546C38.9077 44.2212 39.5742 44.4263 40.374 44.5698C41.1738 44.7134 41.8403 44.7954 42.3735 44.8159V47ZM66.1831 20.5757C66.1831 21.6216 65.9268 22.5547 65.4141 23.375C64.9014 24.1748 64.1118 24.5747 63.0454 24.5747C61.897 24.5747 61.0151 24.2773 60.3999 23.6826C59.8052 23.0879 59.5078 22.4316 59.5078 21.7139C59.5078 21.2627 59.5386 20.8525 59.6001 20.4834C59.6821 20.1143 59.7539 19.7451 59.8154 19.376C58.8516 19.376 57.7236 19.7656 56.4316 20.5449C55.1396 21.3242 54.0425 22.4316 53.1401 23.8672V41.5244C53.1401 42.2422 53.2734 42.8267 53.54 43.2778C53.8271 43.729 54.2681 44.0674 54.8628 44.293C55.3755 44.498 56.0317 44.6519 56.8315 44.7544C57.6519 44.8569 58.3594 44.9287 58.9541 44.9697V47H42.958V44.9697C43.4297 44.9287 43.9116 44.8877 44.4038 44.8467C44.9165 44.8057 45.3574 44.7236 45.7266 44.6006C46.3008 44.416 46.7212 44.0981 46.9878 43.647C47.2749 43.1753 47.4185 42.5703 47.4185 41.832V23.0981C47.4185 22.4624 47.2646 21.8369 46.957 21.2217C46.6699 20.6064 46.2598 20.1143 45.7266 19.7451C45.3369 19.499 44.8755 19.3247 44.3423 19.2222C43.8091 19.0991 43.2349 19.0171 42.6196 18.9761V16.9766L52.7095 16.2998L53.1401 16.7305V21.0063H53.2939C54.5654 19.3452 55.9805 18.084 57.5391 17.2227C59.0977 16.3613 60.5229 15.9307 61.8149 15.9307C63.1069 15.9307 64.1528 16.3511 64.9526 17.1919C65.7729 18.0327 66.1831 19.1606 66.1831 20.5757ZM83.5327 47H68.8594V44.9697C69.3311 44.9287 69.813 44.8877 70.3052 44.8467C70.8179 44.8057 71.2588 44.7236 71.6279 44.6006C72.2021 44.416 72.6226 44.0981 72.8892 43.647C73.1763 43.1753 73.3198 42.5703 73.3198 41.832V23.0981C73.3198 22.4419 73.166 21.8472 72.8584 21.314C72.5713 20.7603 72.1611 20.2988 71.6279 19.9297C71.2383 19.6836 70.6743 19.4785 69.936 19.3145C69.1978 19.1299 68.521 19.0171 67.9058 18.9761V16.9766L78.6108 16.2998L79.0415 16.7305V41.4629C79.0415 42.1807 79.1748 42.7754 79.4414 43.2471C79.7285 43.7188 80.1694 44.0674 80.7642 44.293C81.2153 44.4775 81.6562 44.6313 82.0869 44.7544C82.5176 44.8569 82.9995 44.9287 83.5327 44.9697V47ZM79.6567 4.3335C79.6567 5.50244 79.2671 6.52783 78.4878 7.40967C77.729 8.271 76.7856 8.70166 75.6577 8.70166C74.6118 8.70166 73.6992 8.2915 72.9199 7.47119C72.1611 6.63037 71.7817 5.67676 71.7817 4.61035C71.7817 3.48242 72.1611 2.49805 72.9199 1.65723C73.6992 0.816406 74.6118 0.395996 75.6577 0.395996C76.8267 0.395996 77.7803 0.795898 78.5186 1.5957C79.2773 2.375 79.6567 3.2876 79.6567 4.3335ZM117.217 18.5454C116.294 18.7095 115.412 19.0479 114.571 19.5605C113.751 20.0527 113.043 20.9346 112.449 22.2061C111.239 24.9541 109.988 27.8252 108.696 30.8193C107.404 33.793 106.061 36.9204 104.666 40.2017C104.256 41.145 103.815 42.2627 103.343 43.5547C102.892 44.8467 102.472 46.0874 102.082 47.2769H99.6826C97.7344 42.4575 95.9399 38.0688 94.2993 34.1108C92.6587 30.1323 90.9565 26.0615 89.1929 21.8984C88.7827 20.9551 88.1162 20.2271 87.1934 19.7144C86.291 19.1812 85.3784 18.8428 84.4556 18.6992V16.6689H98.4829V18.8223C97.8677 18.8428 97.0986 18.9761 96.1758 19.2222C95.2529 19.4478 94.7915 19.7656 94.7915 20.1758C94.7915 20.2373 94.8428 20.4014 94.9453 20.668C95.0479 20.9141 95.1504 21.2012 95.2529 21.5293C96.0938 23.6211 97.2832 26.5435 98.8213 30.2964C100.359 34.0493 101.61 37.0742 102.574 39.3711C103.312 37.6074 104.235 35.4131 105.343 32.7881C106.471 30.1631 107.681 27.2305 108.973 23.9902C109.178 23.4365 109.373 22.9238 109.557 22.4521C109.742 21.96 109.834 21.4678 109.834 20.9756C109.834 20.627 109.66 20.3193 109.311 20.0527C108.983 19.7656 108.583 19.5195 108.111 19.3145C107.64 19.1094 107.178 18.9556 106.727 18.853C106.276 18.7505 105.907 18.6787 105.62 18.6377V16.6689H117.217V18.5454ZM147.302 46.4463C146.338 46.7949 145.487 47.0718 144.749 47.2769C144.031 47.5024 143.21 47.6152 142.288 47.6152C140.688 47.6152 139.406 47.2461 138.442 46.5078C137.499 45.749 136.894 44.6519 136.627 43.2163H136.443C135.11 44.6929 133.674 45.8208 132.136 46.6001C130.619 47.3794 128.783 47.769 126.63 47.769C124.354 47.769 122.477 47.0718 121 45.6772C119.544 44.2827 118.816 42.4575 118.816 40.2017C118.816 39.0327 118.98 37.9868 119.309 37.064C119.637 36.1411 120.129 35.3105 120.785 34.5723C121.298 33.957 121.975 33.4136 122.815 32.9419C123.656 32.4497 124.446 32.0601 125.184 31.7729C126.107 31.4243 127.973 30.7783 130.783 29.835C133.613 28.8916 135.52 28.1533 136.504 27.6201V24.5747C136.504 24.3081 136.443 23.7954 136.32 23.0366C136.217 22.2778 135.981 21.5601 135.612 20.8833C135.202 20.1245 134.618 19.4683 133.859 18.9146C133.121 18.3403 132.064 18.0532 130.69 18.0532C129.747 18.0532 128.865 18.2173 128.045 18.5454C127.245 18.853 126.681 19.1812 126.353 19.5298C126.353 19.9399 126.445 20.5449 126.63 21.3447C126.835 22.1445 126.938 22.8828 126.938 23.5596C126.938 24.2773 126.609 24.9336 125.953 25.5283C125.317 26.123 124.425 26.4204 123.277 26.4204C122.251 26.4204 121.493 26.0615 121 25.3438C120.529 24.6055 120.293 23.7852 120.293 22.8828C120.293 21.9395 120.621 21.0371 121.277 20.1758C121.954 19.3145 122.826 18.5454 123.892 17.8687C124.815 17.2944 125.933 16.8125 127.245 16.4229C128.558 16.0127 129.839 15.8076 131.09 15.8076C132.813 15.8076 134.31 15.9307 135.582 16.1768C136.874 16.4023 138.042 16.9048 139.088 17.6841C140.134 18.4429 140.924 19.4785 141.457 20.791C142.011 22.083 142.288 23.7544 142.288 25.8052C142.288 28.7378 142.257 31.3423 142.195 33.6187C142.134 35.8745 142.103 38.3457 142.103 41.0322C142.103 41.832 142.236 42.4678 142.503 42.9395C142.79 43.4111 143.221 43.811 143.795 44.1392C144.103 44.3237 144.584 44.4263 145.241 44.4468C145.917 44.4673 146.604 44.4775 147.302 44.4775V46.4463ZM136.566 30.2041C134.823 30.7168 133.295 31.2192 131.982 31.7114C130.67 32.2036 129.45 32.8188 128.322 33.5571C127.296 34.2544 126.486 35.085 125.892 36.0488C125.297 36.9922 125 38.1201 125 39.4326C125 41.1348 125.44 42.3857 126.322 43.1855C127.225 43.9854 128.363 44.3853 129.737 44.3853C131.193 44.3853 132.475 44.0366 133.582 43.3394C134.689 42.6216 135.623 41.7808 136.381 40.8169L136.566 30.2041Z" fill="#406646"/>
</svg>
